<svg xmlns="http://www.w3.org/2000/svg" viewBox="0 0 64 64">
  <rect width="64" height="64" rx="16" fill="#3B82F6"/>
  <g transform="translate(2 10) scale(0.5)" fill="#ffffff">
    <path d="M66.8203 40.4681C67.1087 34.907 68.076 31.3808 70.6592 27.8349C72.8949 24.7665 76.5184 21.7801 80.5705 21.2945C89.0013 20.2817 91.0865 29.9262 90.0404 36.3028C89.05 42.3368 86.7842 46.7478 85.8088 48.4354C85.5632 48.8599 85.6756 49.3998 86.0741 49.6904C88.275 51.295 94.5142 56.5504 90.8942 62.3329C87.0448 68.4834 78.3302 65.4901 74.197 61.2936C70.8701 57.9173 68.7606 53.6701 67.7273 49.1287C67.1145 46.4352 66.6674 43.413 66.8203 40.4681Z"/>
    <path d="M42.8519 48.6984C42.9933 48.5265 42.8855 48.2739 42.6643 48.2485C35.3884 47.4249 28.8712 41.3736 28.0731 34.1157C27.3305 27.363 32.3232 19.3288 39.3802 18.188C47.0396 16.9503 55.2155 21.9992 59.2503 28.1866C63.3105 34.4133 64.3333 42.2941 63.066 49.6096C62.0768 55.3207 59.6986 60.8829 55.7148 65.1071C51.7299 69.3312 46.0538 72.1043 40.2351 71.997C38.6157 71.967 36.9418 71.6982 35.5934 70.8031C33.016 69.0901 32.3232 65.4647 33.148 62.4898C33.9728 59.5148 35.678 56.6668 37.6438 54.2802L42.8531 48.6972L42.8519 48.6984Z"/>
  </g>
</svg>
